<svg width="32" height="32" viewBox="0 0 32 32" fill="none" xmlns="http://www.w3.org/2000/svg">
<g clip-path="url(#clip0_299_27)">
<path fill-rule="evenodd" clip-rule="evenodd" d="M16 30.8C22.6274 30.8 28 25.4395 28 18.827C28 12.2144 22.6274 1.2 16 1.2C12.0811 1.2 8.601 5.0512 6.411 9.56624L7.33333 10.1798L8.84212 10.6656L10.2456 10.1798L11.6491 10.5123L13.3333 9.84716L14.6667 10.1798L15.8291 10.8023L19.3333 10.8449L23.6667 10.5123L19.3333 11.1775H15.6667H15L13.7544 10.8449L11.6491 11.5101L10.2456 11.1775L8.84212 11.8427L5.69268 11.183C4.61774 13.8364 4 16.5847 4 18.827C4 25.4395 9.3726 30.8 16 30.8Z" fill="#FFA500"/>
<path d="M13.7254 17.7728C13.7254 18.1312 13.639 18.4672 13.4662 18.7808C13.2998 19.0944 13.0342 19.3472 12.6694 19.5392C12.311 19.7312 11.8566 19.8272 11.3062 19.8272H10.183V22.4H8.83899V15.6992H11.3062C11.8246 15.6992 12.2662 15.7888 12.631 15.968C12.9958 16.1472 13.2678 16.3936 13.447 16.7072C13.6326 17.0208 13.7254 17.376 13.7254 17.7728ZM11.2486 18.7424C11.6198 18.7424 11.895 18.6592 12.0742 18.4928C12.2534 18.32 12.343 18.08 12.343 17.7728C12.343 17.12 11.9782 16.7936 11.2486 16.7936H10.183V18.7424H11.2486ZM16.0236 17.9072C16.1964 17.6256 16.4204 17.4048 16.6956 17.2448C16.9772 17.0848 17.2972 17.0048 17.6556 17.0048V18.416H17.3004C16.878 18.416 16.558 18.5152 16.3404 18.7136C16.1292 18.912 16.0236 19.2576 16.0236 19.7504V22.4H14.6796V17.0816H16.0236V17.9072ZM23.5049 19.6256C23.5049 19.8176 23.4921 19.9904 23.4665 20.144H19.5785C19.6105 20.528 19.7449 20.8288 19.9817 21.0464C20.2185 21.264 20.5097 21.3728 20.8553 21.3728C21.3545 21.3728 21.7097 21.1584 21.9209 20.7296H23.3705C23.2169 21.2416 22.9225 21.664 22.4873 21.9968C22.0521 22.3232 21.5177 22.4864 20.8841 22.4864C20.3721 22.4864 19.9113 22.3744 19.5017 22.1504C19.0985 21.92 18.7817 21.5968 18.5513 21.1808C18.3273 20.7648 18.2153 20.2848 18.2153 19.7408C18.2153 19.1904 18.3273 18.7072 18.5513 18.2912C18.7753 17.8752 19.0889 17.5552 19.4921 17.3312C19.8953 17.1072 20.3593 16.9952 20.8841 16.9952C21.3897 16.9952 21.8409 17.104 22.2377 17.3216C22.6409 17.5392 22.9513 17.8496 23.1689 18.2528C23.3929 18.6496 23.5049 19.1072 23.5049 19.6256ZM22.1129 19.2416C22.1065 18.896 21.9817 18.6208 21.7385 18.416C21.4953 18.2048 21.1977 18.0992 20.8457 18.0992C20.5129 18.0992 20.2313 18.2016 20.0009 18.4064C19.7769 18.6048 19.6393 18.8832 19.5881 19.2416H22.1129Z" fill="white"/>
</g>
<defs>
<clipPath id="clip0_299_27">
<rect width="24" height="29.6" fill="white" transform="translate(4 1.2)"/>
</clipPath>
</defs>
</svg>
