<svg width="78" height="44" viewBox="0 0 78 44" fill="none" xmlns="http://www.w3.org/2000/svg">
<g clip-path="url(#clip0_364_24)">
<path d="M37.1568 27.416C37.1568 26.328 37.4021 25.352 37.8928 24.488C38.3834 23.6133 39.0501 22.9307 39.8928 22.44C40.7461 21.9493 41.6901 21.704 42.7248 21.704C43.9408 21.704 45.0021 21.9973 45.9088 22.584C46.8154 23.1707 47.4768 24.0027 47.8928 25.08H46.1488C45.8394 24.408 45.3914 23.8907 44.8048 23.528C44.2288 23.1653 43.5354 22.984 42.7248 22.984C41.9461 22.984 41.2474 23.1653 40.6288 23.528C40.0101 23.8907 39.5248 24.408 39.1728 25.08C38.8208 25.7413 38.6448 26.52 38.6448 27.416C38.6448 28.3013 38.8208 29.08 39.1728 29.752C39.5248 30.4133 40.0101 30.9253 40.6288 31.288C41.2474 31.6507 41.9461 31.832 42.7248 31.832C43.5354 31.832 44.2288 31.656 44.8048 31.304C45.3914 30.9413 45.8394 30.424 46.1488 29.752H47.8928C47.4768 30.8187 46.8154 31.6453 45.9088 32.232C45.0021 32.808 43.9408 33.096 42.7248 33.096C41.6901 33.096 40.7461 32.856 39.8928 32.376C39.0501 31.8853 38.3834 31.208 37.8928 30.344C37.4021 29.48 37.1568 28.504 37.1568 27.416ZM53.8841 33.144C53.0628 33.144 52.3161 32.9573 51.6441 32.584C50.9828 32.2107 50.4601 31.6827 50.0761 31C49.7028 30.3067 49.5161 29.5067 49.5161 28.6C49.5161 27.704 49.7081 26.9147 50.0921 26.232C50.4868 25.5387 51.0201 25.0107 51.6921 24.648C52.3641 24.2747 53.1161 24.088 53.9481 24.088C54.7801 24.088 55.5321 24.2747 56.2041 24.648C56.8761 25.0107 57.4041 25.5333 57.7881 26.216C58.1828 26.8987 58.3801 27.6933 58.3801 28.6C58.3801 29.5067 58.1775 30.3067 57.7721 31C57.3775 31.6827 56.8388 32.2107 56.1561 32.584C55.4735 32.9573 54.7161 33.144 53.8841 33.144ZM53.8841 31.864C54.4068 31.864 54.8975 31.7413 55.3561 31.496C55.8148 31.2507 56.1828 30.8827 56.4601 30.392C56.7481 29.9013 56.8921 29.304 56.8921 28.6C56.8921 27.896 56.7535 27.2987 56.4761 26.808C56.1988 26.3173 55.8361 25.9547 55.3881 25.72C54.9401 25.4747 54.4548 25.352 53.9321 25.352C53.3988 25.352 52.9081 25.4747 52.4601 25.72C52.0228 25.9547 51.6708 26.3173 51.4041 26.808C51.1375 27.2987 51.0041 27.896 51.0041 28.6C51.0041 29.3147 51.1321 29.9173 51.3881 30.408C51.6548 30.8987 52.0068 31.2667 52.4441 31.512C52.8815 31.7467 53.3615 31.864 53.8841 31.864ZM64.1185 33.144C63.2972 33.144 62.5505 32.9573 61.8785 32.584C61.2172 32.2107 60.6945 31.6827 60.3105 31C59.9372 30.3067 59.7505 29.5067 59.7505 28.6C59.7505 27.704 59.9425 26.9147 60.3265 26.232C60.7212 25.5387 61.2545 25.0107 61.9265 24.648C62.5985 24.2747 63.3505 24.088 64.1825 24.088C65.0145 24.088 65.7665 24.2747 66.4385 24.648C67.1105 25.0107 67.6385 25.5333 68.0225 26.216C68.4172 26.8987 68.6145 27.6933 68.6145 28.6C68.6145 29.5067 68.4118 30.3067 68.0065 31C67.6118 31.6827 67.0732 32.2107 66.3905 32.584C65.7078 32.9573 64.9505 33.144 64.1185 33.144ZM64.1185 31.864C64.6412 31.864 65.1318 31.7413 65.5905 31.496C66.0492 31.2507 66.4172 30.8827 66.6945 30.392C66.9825 29.9013 67.1265 29.304 67.1265 28.6C67.1265 27.896 66.9878 27.2987 66.7105 26.808C66.4332 26.3173 66.0705 25.9547 65.6225 25.72C65.1745 25.4747 64.6892 25.352 64.1665 25.352C63.6332 25.352 63.1425 25.4747 62.6945 25.72C62.2572 25.9547 61.9052 26.3173 61.6385 26.808C61.3718 27.2987 61.2385 27.896 61.2385 28.6C61.2385 29.3147 61.3665 29.9173 61.6225 30.408C61.8892 30.8987 62.2412 31.2667 62.6785 31.512C63.1158 31.7467 63.5958 31.864 64.1185 31.864ZM75.4249 33L71.9849 29.128V33H70.5289V21.16H71.9849V28.12L75.3609 24.232H77.3929L73.2649 28.6L77.4089 33H75.4249Z" fill="black"/>
<path fill-rule="evenodd" clip-rule="evenodd" d="M18 44C27.9411 44 36 36.0317 36 26.2022C36 16.3728 27.9411 0 18 0C12.1217 0 6.90151 5.72476 3.61649 12.4363L4.99999 13.3483L7.26315 14.0704L9.36841 13.3483L11.4737 13.8427L14 12.8539L16 13.3483L17.7436 14.2737L23 14.337L29.5 13.8427L23 14.8314H17.5H16.5L14.6316 14.337L11.4737 15.3258L9.36841 14.8314L7.26315 15.8202L2.53902 14.8395C0.926612 18.7838 0 22.8692 0 26.2022C0 36.0317 8.05887 44 18 44Z" fill="#FFA500"/>
<path d="M41.26 40L40.395 38.54H39.75V40H39.4V36.505H40.45C40.84 36.505 41.135 36.5983 41.335 36.785C41.5383 36.9717 41.64 37.2167 41.64 37.52C41.64 37.7733 41.5667 37.99 41.42 38.17C41.2767 38.3467 41.0633 38.4617 40.78 38.515L41.68 40H41.26ZM39.75 38.255H40.455C40.7283 38.255 40.9333 38.1883 41.07 38.055C41.21 37.9217 41.28 37.7433 41.28 37.52C41.28 37.29 41.2133 37.1133 41.08 36.99C40.9467 36.8633 40.7367 36.8 40.45 36.8H39.75V38.255ZM44.8046 38.495C44.8046 38.615 44.8012 38.7067 44.7946 38.77H42.5296C42.5396 38.9767 42.5896 39.1533 42.6796 39.3C42.7696 39.4467 42.8879 39.5583 43.0346 39.635C43.1812 39.7083 43.3412 39.745 43.5146 39.745C43.7412 39.745 43.9312 39.69 44.0846 39.58C44.2412 39.47 44.3446 39.3217 44.3946 39.135H44.7646C44.6979 39.4017 44.5546 39.62 44.3346 39.79C44.1179 39.9567 43.8446 40.04 43.5146 40.04C43.2579 40.04 43.0279 39.9833 42.8246 39.87C42.6212 39.7533 42.4612 39.59 42.3446 39.38C42.2312 39.1667 42.1746 38.9183 42.1746 38.635C42.1746 38.3517 42.2312 38.1033 42.3446 37.89C42.4579 37.6767 42.6162 37.5133 42.8196 37.4C43.0229 37.2867 43.2546 37.23 43.5146 37.23C43.7746 37.23 44.0012 37.2867 44.1946 37.4C44.3912 37.5133 44.5412 37.6667 44.6446 37.86C44.7512 38.05 44.8046 38.2617 44.8046 38.495ZM44.4496 38.485C44.4529 38.2817 44.4112 38.1083 44.3246 37.965C44.2412 37.8217 44.1262 37.7133 43.9796 37.64C43.8329 37.5667 43.6729 37.53 43.4996 37.53C43.2396 37.53 43.0179 37.6133 42.8346 37.78C42.6512 37.9467 42.5496 38.1817 42.5296 38.485H44.4496ZM45.2849 38.63C45.2849 38.35 45.3399 38.105 45.4499 37.895C45.5633 37.6817 45.7183 37.5183 45.9149 37.405C46.1149 37.2883 46.3399 37.23 46.5899 37.23C46.8499 37.23 47.0733 37.29 47.2599 37.41C47.4499 37.53 47.5866 37.6833 47.6699 37.87V37.27H48.0199V40H47.6699V39.395C47.5833 39.5817 47.4449 39.7367 47.2549 39.86C47.0683 39.98 46.8449 40.04 46.5849 40.04C46.3383 40.04 46.1149 39.9817 45.9149 39.865C45.7183 39.7483 45.5633 39.5833 45.4499 39.37C45.3399 39.1567 45.2849 38.91 45.2849 38.63ZM47.6699 38.635C47.6699 38.415 47.6249 38.2217 47.5349 38.055C47.4449 37.8883 47.3216 37.76 47.1649 37.67C47.0116 37.58 46.8416 37.535 46.6549 37.535C46.4616 37.535 46.2883 37.5783 46.1349 37.665C45.9816 37.7517 45.8599 37.8783 45.7699 38.045C45.6833 38.2083 45.6399 38.4033 45.6399 38.63C45.6399 38.8533 45.6833 39.05 45.7699 39.22C45.8599 39.3867 45.9816 39.515 46.1349 39.605C46.2883 39.6917 46.4616 39.735 46.6549 39.735C46.8416 39.735 47.0116 39.69 47.1649 39.6C47.3216 39.51 47.4449 39.3817 47.5349 39.215C47.6249 39.0483 47.6699 38.855 47.6699 38.635ZM48.6589 38.63C48.6589 38.35 48.7156 38.105 48.8289 37.895C48.9423 37.6817 49.0973 37.5183 49.2939 37.405C49.4939 37.2883 49.7189 37.23 49.9689 37.23C50.2089 37.23 50.4256 37.2883 50.6189 37.405C50.8123 37.5217 50.9539 37.6733 51.0439 37.86V36.3H51.3939V40H51.0439V39.39C50.9606 39.58 50.8239 39.7367 50.6339 39.86C50.4439 39.98 50.2206 40.04 49.9639 40.04C49.7139 40.04 49.4889 39.9817 49.2889 39.865C49.0923 39.7483 48.9373 39.5833 48.8239 39.37C48.7139 39.1567 48.6589 38.91 48.6589 38.63ZM51.0439 38.635C51.0439 38.415 50.9989 38.2217 50.9089 38.055C50.8189 37.8883 50.6956 37.76 50.5389 37.67C50.3856 37.58 50.2156 37.535 50.0289 37.535C49.8356 37.535 49.6623 37.5783 49.5089 37.665C49.3556 37.7517 49.2339 37.8783 49.1439 38.045C49.0573 38.2083 49.0139 38.4033 49.0139 38.63C49.0139 38.8533 49.0573 39.05 49.1439 39.22C49.2339 39.3867 49.3556 39.515 49.5089 39.605C49.6623 39.6917 49.8356 39.735 50.0289 39.735C50.2156 39.735 50.3856 39.69 50.5389 39.6C50.6956 39.51 50.8189 39.3817 50.9089 39.215C50.9989 39.0483 51.0439 38.855 51.0439 38.635ZM54.443 37.27L52.823 41.285H52.458L52.988 39.985L51.868 37.27H52.253L53.183 39.6L54.083 37.27H54.443ZM56.7446 37.565V39.26C56.7446 39.4267 56.7763 39.5417 56.8396 39.605C56.903 39.6683 57.0146 39.7 57.1746 39.7H57.4946V40H57.1196C56.873 40 56.6896 39.9433 56.5696 39.83C56.4496 39.7133 56.3896 39.5233 56.3896 39.26V37.565H56.0096V37.27H56.3896V36.585H56.7446V37.27H57.4946V37.565H56.7446ZM59.2669 40.04C59.0102 40.04 58.7785 39.9833 58.5719 39.87C58.3685 39.7533 58.2069 39.59 58.0869 39.38C57.9702 39.1667 57.9119 38.9183 57.9119 38.635C57.9119 38.3517 57.9719 38.105 58.0919 37.895C58.2119 37.6817 58.3752 37.5183 58.5819 37.405C58.7885 37.2883 59.0202 37.23 59.2769 37.23C59.5335 37.23 59.7652 37.2883 59.9719 37.405C60.1819 37.5183 60.3452 37.6817 60.4619 37.895C60.5819 38.105 60.6419 38.3517 60.6419 38.635C60.6419 38.915 60.5819 39.1617 60.4619 39.375C60.3419 39.5883 60.1769 39.7533 59.9669 39.87C59.7569 39.9833 59.5235 40.04 59.2669 40.04ZM59.2669 39.735C59.4469 39.735 59.6135 39.695 59.7669 39.615C59.9202 39.5317 60.0435 39.4083 60.1369 39.245C60.2335 39.0783 60.2819 38.875 60.2819 38.635C60.2819 38.395 60.2352 38.1933 60.1419 38.03C60.0485 37.8633 59.9252 37.74 59.7719 37.66C59.6185 37.5767 59.4519 37.535 59.2719 37.535C59.0919 37.535 58.9252 37.5767 58.7719 37.66C58.6185 37.74 58.4952 37.8633 58.4019 38.03C58.3119 38.1933 58.2669 38.395 58.2669 38.635C58.2669 38.875 58.3119 39.0783 58.4019 39.245C58.4952 39.4083 58.6169 39.5317 58.7669 39.615C58.9202 39.695 59.0869 39.735 59.2669 39.735ZM62.492 38.635C62.492 38.3517 62.5486 38.105 62.662 37.895C62.7753 37.6817 62.932 37.5183 63.132 37.405C63.332 37.2883 63.5603 37.23 63.817 37.23C64.1536 37.23 64.4303 37.3133 64.647 37.48C64.867 37.6467 65.0086 37.8733 65.072 38.16H64.697C64.6503 37.9633 64.5486 37.81 64.392 37.7C64.2386 37.5867 64.047 37.53 63.817 37.53C63.6336 37.53 63.4686 37.5717 63.322 37.655C63.1753 37.7383 63.0586 37.8633 62.972 38.03C62.8886 38.1933 62.847 38.395 62.847 38.635C62.847 38.875 62.8886 39.0783 62.972 39.245C63.0586 39.4117 63.1753 39.5367 63.322 39.62C63.4686 39.7033 63.6336 39.745 63.817 39.745C64.047 39.745 64.2386 39.69 64.392 39.58C64.5486 39.4667 64.6503 39.31 64.697 39.11H65.072C65.0086 39.39 64.867 39.615 64.647 39.785C64.427 39.955 64.1503 40.04 63.817 40.04C63.5603 40.04 63.332 39.9833 63.132 39.87C62.932 39.7533 62.7753 39.59 62.662 39.38C62.5486 39.1667 62.492 38.9183 62.492 38.635ZM66.9134 40.04C66.6567 40.04 66.425 39.9833 66.2184 39.87C66.015 39.7533 65.8534 39.59 65.7334 39.38C65.6167 39.1667 65.5584 38.9183 65.5584 38.635C65.5584 38.3517 65.6184 38.105 65.7384 37.895C65.8584 37.6817 66.0217 37.5183 66.2284 37.405C66.435 37.2883 66.6667 37.23 66.9234 37.23C67.18 37.23 67.4117 37.2883 67.6184 37.405C67.8284 37.5183 67.9917 37.6817 68.1084 37.895C68.2284 38.105 68.2884 38.3517 68.2884 38.635C68.2884 38.915 68.2284 39.1617 68.1084 39.375C67.9884 39.5883 67.8234 39.7533 67.6134 39.87C67.4034 39.9833 67.17 40.04 66.9134 40.04ZM66.9134 39.735C67.0934 39.735 67.26 39.695 67.4134 39.615C67.5667 39.5317 67.69 39.4083 67.7834 39.245C67.88 39.0783 67.9284 38.875 67.9284 38.635C67.9284 38.395 67.8817 38.1933 67.7884 38.03C67.695 37.8633 67.5717 37.74 67.4184 37.66C67.265 37.5767 67.0984 37.535 66.9184 37.535C66.7384 37.535 66.5717 37.5767 66.4184 37.66C66.265 37.74 66.1417 37.8633 66.0484 38.03C65.9584 38.1933 65.9134 38.395 65.9134 38.635C65.9134 38.875 65.9584 39.0783 66.0484 39.245C66.1417 39.4083 66.2634 39.5317 66.4134 39.615C66.5667 39.695 66.7334 39.735 66.9134 39.735ZM70.1214 40.04C69.8647 40.04 69.633 39.9833 69.4264 39.87C69.223 39.7533 69.0614 39.59 68.9414 39.38C68.8247 39.1667 68.7664 38.9183 68.7664 38.635C68.7664 38.3517 68.8264 38.105 68.9464 37.895C69.0664 37.6817 69.2297 37.5183 69.4364 37.405C69.643 37.2883 69.8747 37.23 70.1314 37.23C70.388 37.23 70.6197 37.2883 70.8264 37.405C71.0364 37.5183 71.1997 37.6817 71.3164 37.895C71.4364 38.105 71.4964 38.3517 71.4964 38.635C71.4964 38.915 71.4364 39.1617 71.3164 39.375C71.1964 39.5883 71.0314 39.7533 70.8214 39.87C70.6114 39.9833 70.378 40.04 70.1214 40.04ZM70.1214 39.735C70.3014 39.735 70.468 39.695 70.6214 39.615C70.7747 39.5317 70.898 39.4083 70.9914 39.245C71.088 39.0783 71.1364 38.875 71.1364 38.635C71.1364 38.395 71.0897 38.1933 70.9964 38.03C70.903 37.8633 70.7797 37.74 70.6264 37.66C70.473 37.5767 70.3064 37.535 70.1264 37.535C69.9464 37.535 69.7797 37.5767 69.6264 37.66C69.473 37.74 69.3497 37.8633 69.2564 38.03C69.1664 38.1933 69.1214 38.395 69.1214 38.635C69.1214 38.875 69.1664 39.0783 69.2564 39.245C69.3497 39.4083 69.4714 39.5317 69.6214 39.615C69.7747 39.695 69.9414 39.735 70.1214 39.735ZM73.6094 40L72.4844 38.775V40H72.1344V36.3H72.4844V38.49L73.5844 37.27H74.0744L72.7794 38.63L74.0844 40H73.6094Z" fill="black"/>
<path d="M14.2089 25.288C14.2089 25.8853 14.0649 26.4453 13.7769 26.968C13.4996 27.4907 13.0569 27.912 12.4489 28.232C11.8516 28.552 11.0943 28.712 10.1769 28.712H8.30494V33H6.06494V21.832H10.1769C11.0409 21.832 11.7769 21.9813 12.3849 22.28C12.9929 22.5787 13.4463 22.9893 13.7449 23.512C14.0543 24.0347 14.2089 24.6267 14.2089 25.288ZM10.0809 26.904C10.6996 26.904 11.1583 26.7653 11.4569 26.488C11.7556 26.2 11.9049 25.8 11.9049 25.288C11.9049 24.2 11.2969 23.656 10.0809 23.656H8.30494V26.904H10.0809ZM18.0393 25.512C18.3273 25.0427 18.7006 24.6747 19.1593 24.408C19.6286 24.1413 20.162 24.008 20.7593 24.008V26.36H20.1673C19.4633 26.36 18.93 26.5253 18.5673 26.856C18.2153 27.1867 18.0393 27.7627 18.0393 28.584V33H15.7993V24.136H18.0393V25.512ZM30.5081 28.376C30.5081 28.696 30.4867 28.984 30.4441 29.24H23.9641C24.0174 29.88 24.2414 30.3813 24.6361 30.744C25.0307 31.1067 25.5161 31.288 26.0921 31.288C26.9241 31.288 27.5161 30.9307 27.8681 30.216H30.2841C30.0281 31.0693 29.5374 31.7733 28.8121 32.328C28.0867 32.872 27.1961 33.144 26.1401 33.144C25.2867 33.144 24.5187 32.9573 23.8361 32.584C23.1641 32.2 22.6361 31.6613 22.2521 30.968C21.8787 30.2747 21.6921 29.4747 21.6921 28.568C21.6921 27.6507 21.8787 26.8453 22.2521 26.152C22.6254 25.4587 23.1481 24.9253 23.8201 24.552C24.4921 24.1787 25.2654 23.992 26.1401 23.992C26.9827 23.992 27.7347 24.1733 28.3961 24.536C29.0681 24.8987 29.5854 25.416 29.9481 26.088C30.3214 26.7493 30.5081 27.512 30.5081 28.376ZM28.1881 27.736C28.1774 27.16 27.9694 26.7013 27.5641 26.36C27.1587 26.008 26.6627 25.832 26.0761 25.832C25.5214 25.832 25.0521 26.0027 24.6681 26.344C24.2947 26.6747 24.0654 27.1387 23.9801 27.736H28.1881Z" fill="white"/>
</g>
<defs>
<clipPath id="clip0_364_24">
<rect width="78" height="44" fill="white"/>
</clipPath>
</defs>
</svg>
