<svg width="100" height="57" viewBox="0 0 100 57" fill="none" xmlns="http://www.w3.org/2000/svg">
<g clip-path="url(#clip0_364_46)">
<path d="M49 35.0205C49 33.6256 49.3145 32.3743 49.9436 31.2666C50.5726 30.1452 51.4273 29.2701 52.5077 28.641C53.6017 28.0119 54.8119 27.6974 56.1385 27.6974C57.6974 27.6974 59.0581 28.0734 60.2205 28.8256C61.3828 29.5778 62.2308 30.6445 62.7641 32.0256H60.5282C60.1315 31.1641 59.5572 30.5009 58.8051 30.0359C58.0667 29.5709 57.1777 29.3384 56.1385 29.3384C55.1401 29.3384 54.2444 29.5709 53.4513 30.0359C52.6581 30.5009 52.0359 31.1641 51.5846 32.0256C51.1333 32.8734 50.9077 33.8718 50.9077 35.0205C50.9077 36.1555 51.1333 37.1538 51.5846 38.0154C52.0359 38.8632 52.6581 39.5196 53.4513 39.9846C54.2444 40.4496 55.1401 40.682 56.1385 40.682C57.1777 40.682 58.0667 40.4564 58.8051 40.0051C59.5572 39.5401 60.1315 38.8769 60.5282 38.0154H62.7641C62.2308 39.3829 61.3828 40.4427 60.2205 41.1948C59.0581 41.9333 57.6974 42.3025 56.1385 42.3025C54.8119 42.3025 53.6017 41.9948 52.5077 41.3795C51.4273 40.7504 50.5726 39.882 49.9436 38.7743C49.3145 37.6666 49 36.4154 49 35.0205ZM70.4453 42.3641C69.3923 42.3641 68.435 42.1247 67.5735 41.6461C66.7256 41.1675 66.0555 40.4906 65.5632 39.6154C65.0846 38.7265 64.8453 37.7009 64.8453 36.5384C64.8453 35.3897 65.0914 34.3778 65.5837 33.5025C66.0897 32.6137 66.7735 31.9368 67.635 31.4718C68.4965 30.9932 69.4606 30.7538 70.5273 30.7538C71.594 30.7538 72.5581 30.9932 73.4196 31.4718C74.2812 31.9368 74.9581 32.6068 75.4504 33.482C75.9564 34.3573 76.2094 35.376 76.2094 36.5384C76.2094 37.7009 75.9496 38.7265 75.4299 39.6154C74.924 40.4906 74.2333 41.1675 73.3581 41.6461C72.483 42.1247 71.5119 42.3641 70.4453 42.3641ZM70.4453 40.7231C71.1154 40.7231 71.7445 40.5657 72.3324 40.2513C72.9205 39.9368 73.3923 39.465 73.7478 38.8359C74.1171 38.2068 74.3017 37.441 74.3017 36.5384C74.3017 35.6359 74.124 34.8701 73.7683 34.241C73.4128 33.6119 72.9478 33.147 72.3735 32.8461C71.7991 32.5316 71.1769 32.3743 70.5068 32.3743C69.8231 32.3743 69.194 32.5316 68.6196 32.8461C68.059 33.147 67.6077 33.6119 67.2658 34.241C66.924 34.8701 66.753 35.6359 66.753 36.5384C66.753 37.4547 66.9171 38.2273 67.2453 38.8564C67.5872 39.4855 68.0385 39.9573 68.5991 40.2718C69.1599 40.5727 69.7753 40.7231 70.4453 40.7231ZM83.5663 42.3641C82.5133 42.3641 81.556 42.1247 80.6945 41.6461C79.8467 41.1675 79.1765 40.4906 78.6842 39.6154C78.2056 38.7265 77.9663 37.7009 77.9663 36.5384C77.9663 35.3897 78.2124 34.3778 78.7047 33.5025C79.2108 32.6137 79.8945 31.9368 80.756 31.4718C81.6176 30.9932 82.5817 30.7538 83.6483 30.7538C84.715 30.7538 85.6791 30.9932 86.5406 31.4718C87.4022 31.9368 88.0791 32.6068 88.5714 33.482C89.0774 34.3573 89.3304 35.376 89.3304 36.5384C89.3304 37.7009 89.0705 38.7265 88.5509 39.6154C88.0449 40.4906 87.3544 41.1675 86.4791 41.6461C85.6039 42.1247 84.633 42.3641 83.5663 42.3641ZM83.5663 40.7231C84.2364 40.7231 84.8654 40.5657 85.4535 40.2513C86.0415 39.9368 86.5133 39.465 86.8689 38.8359C87.2381 38.2068 87.4227 37.441 87.4227 36.5384C87.4227 35.6359 87.2449 34.8701 86.8894 34.241C86.5339 33.6119 86.0688 33.147 85.4945 32.8461C84.9201 32.5316 84.2979 32.3743 83.6278 32.3743C82.9441 32.3743 82.315 32.5316 81.7406 32.8461C81.18 33.147 80.7287 33.6119 80.3868 34.241C80.0449 34.8701 79.874 35.6359 79.874 36.5384C79.874 37.4547 80.0381 38.2273 80.3663 38.8564C80.7082 39.4855 81.1595 39.9573 81.7201 40.2718C82.2808 40.5727 82.8962 40.7231 83.5663 40.7231ZM98.0617 42.1795L93.6514 37.2154V42.1795H91.7847V27H93.6514V35.9231L97.9796 30.9384H100.585L95.2924 36.5384L100.605 42.1795H98.0617Z" fill="white"/>
<path fill-rule="evenodd" clip-rule="evenodd" d="M23.0769 56.4103C35.8219 56.4103 46.1538 46.1945 46.1538 33.5926C46.1538 20.9908 35.8219 0 23.0769 0C15.5406 0 8.84809 7.33944 4.63653 15.944L6.41024 17.1132L9.31173 18.039L12.0108 17.1132L14.7099 17.747L17.9487 16.4794L20.5128 17.1132L22.7482 18.2996L29.4872 18.3808L37.8205 17.747L29.4872 19.0146H22.4359H21.1538L18.7585 18.3808L14.7099 19.6485L12.0108 19.0146L9.31173 20.2823L3.25515 19.025C1.18796 24.0818 0 29.3195 0 33.5926C0 46.1945 10.3319 56.4103 23.0769 56.4103Z" fill="#FFA500"/>
<path d="M18.2165 32.4205C18.2165 33.1863 18.0319 33.9042 17.6627 34.5744C17.3072 35.2445 16.7396 35.7846 15.9601 36.1949C15.1944 36.6051 14.2235 36.8103 13.0473 36.8103H10.6474V42.3077H7.77557V27.9897H13.0473C14.155 27.9897 15.0986 28.1812 15.8781 28.5641C16.6576 28.9471 17.2389 29.4735 17.6217 30.1436C18.0183 30.8137 18.2165 31.5727 18.2165 32.4205ZM12.9242 34.4923C13.7174 34.4923 14.3055 34.3145 14.6883 33.959C15.0713 33.5897 15.2627 33.0769 15.2627 32.4205C15.2627 31.0256 14.4832 30.3282 12.9242 30.3282H10.6474V34.4923H12.9242ZM23.1273 32.7077C23.4965 32.106 23.9751 31.6342 24.5632 31.2923C25.1649 30.9504 25.8487 30.7795 26.6145 30.7795V33.7949H25.8555C24.953 33.7949 24.2692 34.0068 23.8042 34.4308C23.353 34.8547 23.1273 35.5932 23.1273 36.6462V42.3077H20.2555V30.9436H23.1273V32.7077ZM39.113 36.3795C39.113 36.7897 39.0855 37.159 39.0309 37.4872H30.7232C30.7915 38.3077 31.0787 38.9504 31.5848 39.4154C32.0907 39.8804 32.713 40.1128 33.4514 40.1128C34.5181 40.1128 35.2771 39.6547 35.7283 38.7385H38.8258C38.4976 39.8324 37.8685 40.735 36.9386 41.4462C36.0086 42.1436 34.8668 42.4923 33.513 42.4923C32.4189 42.4923 31.4342 42.253 30.5591 41.7744C29.6976 41.2821 29.0207 40.5914 28.5283 39.7026C28.0496 38.8137 27.8104 37.7881 27.8104 36.6256C27.8104 35.4496 28.0496 34.4171 28.5283 33.5282C29.0069 32.6394 29.6771 31.9555 30.5386 31.4769C31.4001 30.9983 32.3915 30.759 33.513 30.759C34.5932 30.759 35.5573 30.9914 36.4053 31.4564C37.2668 31.9214 37.93 32.5846 38.395 33.4462C38.8736 34.294 39.113 35.2718 39.113 36.3795ZM36.1386 35.559C36.1249 34.8205 35.8582 34.2324 35.3386 33.7949C34.8189 33.3436 34.183 33.118 33.4309 33.118C32.7198 33.118 32.1181 33.3368 31.6258 33.7744C31.1471 34.1983 30.8531 34.7932 30.7437 35.559H36.1386Z" fill="white"/>
</g>
<defs>
<clipPath id="clip0_364_46">
<rect width="100" height="57" fill="white"/>
</clipPath>
</defs>
</svg>
