<svg width="359" height="124" viewBox="0 0 359 124" fill="none" xmlns="http://www.w3.org/2000/svg">
<path d="M108.316 72.908C108.964 71.78 109.924 70.844 111.196 70.1C112.492 69.332 113.992 68.948 115.696 68.948C117.448 68.948 119.032 69.368 120.448 70.208C121.888 71.048 123.016 72.236 123.832 73.772C124.648 75.284 125.056 77.048 125.056 79.064C125.056 81.056 124.648 82.832 123.832 84.392C123.016 85.952 121.888 87.164 120.448 88.028C119.032 88.892 117.448 89.324 115.696 89.324C114.016 89.324 112.528 88.952 111.232 88.208C109.96 87.44 108.988 86.492 108.316 85.364V98.36H105.04V69.272H108.316V72.908ZM121.708 79.064C121.708 77.576 121.408 76.28 120.808 75.176C120.208 74.072 119.392 73.232 118.36 72.656C117.352 72.08 116.236 71.792 115.012 71.792C113.812 71.792 112.696 72.092 111.664 72.692C110.656 73.268 109.84 74.12 109.216 75.248C108.616 76.352 108.316 77.636 108.316 79.1C108.316 80.588 108.616 81.896 109.216 83.024C109.84 84.128 110.656 84.98 111.664 85.58C112.696 86.156 113.812 86.444 115.012 86.444C116.236 86.444 117.352 86.156 118.36 85.58C119.392 84.98 120.208 84.128 120.808 83.024C121.408 81.896 121.708 80.576 121.708 79.064ZM128.144 79.064C128.144 77.048 128.552 75.284 129.368 73.772C130.184 72.236 131.3 71.048 132.716 70.208C134.156 69.368 135.752 68.948 137.504 68.948C139.232 68.948 140.732 69.32 142.004 70.064C143.276 70.808 144.224 71.744 144.848 72.872V69.272H148.16V89H144.848V85.328C144.2 86.48 143.228 87.44 141.932 88.208C140.66 88.952 139.172 89.324 137.468 89.324C135.716 89.324 134.132 88.892 132.716 88.028C131.3 87.164 130.184 85.952 129.368 84.392C128.552 82.832 128.144 81.056 128.144 79.064ZM144.848 79.1C144.848 77.612 144.548 76.316 143.948 75.212C143.348 74.108 142.532 73.268 141.5 72.692C140.492 72.092 139.376 71.792 138.152 71.792C136.928 71.792 135.812 72.08 134.804 72.656C133.796 73.232 132.992 74.072 132.392 75.176C131.792 76.28 131.492 77.576 131.492 79.064C131.492 80.576 131.792 81.896 132.392 83.024C132.992 84.128 133.796 84.98 134.804 85.58C135.812 86.156 136.928 86.444 138.152 86.444C139.376 86.444 140.492 86.156 141.5 85.58C142.532 84.98 143.348 84.128 143.948 83.024C144.548 81.896 144.848 80.588 144.848 79.1ZM156.972 72.476C157.548 71.348 158.364 70.472 159.42 69.848C160.5 69.224 161.808 68.912 163.344 68.912V72.296H162.48C158.808 72.296 156.972 74.288 156.972 78.272V89H153.696V69.272H156.972V72.476ZM185.126 78.38C185.126 79.004 185.09 79.664 185.018 80.36H169.25C169.37 82.304 170.03 83.828 171.23 84.932C172.454 86.012 173.93 86.552 175.658 86.552C177.074 86.552 178.25 86.228 179.186 85.58C180.146 84.908 180.818 84.02 181.202 82.916H184.73C184.202 84.812 183.146 86.36 181.562 87.56C179.978 88.736 178.01 89.324 175.658 89.324C173.786 89.324 172.106 88.904 170.618 88.064C169.154 87.224 168.002 86.036 167.162 84.5C166.322 82.94 165.902 81.14 165.902 79.1C165.902 77.06 166.31 75.272 167.126 73.736C167.942 72.2 169.082 71.024 170.546 70.208C172.034 69.368 173.738 68.948 175.658 68.948C177.53 68.948 179.186 69.356 180.626 70.172C182.066 70.988 183.17 72.116 183.938 73.556C184.73 74.972 185.126 76.58 185.126 78.38ZM181.742 77.696C181.742 76.448 181.466 75.38 180.914 74.492C180.362 73.58 179.606 72.896 178.646 72.44C177.71 71.96 176.666 71.72 175.514 71.72C173.858 71.72 172.442 72.248 171.266 73.304C170.114 74.36 169.454 75.824 169.286 77.696H181.742ZM188.226 79.064C188.226 77.048 188.634 75.284 189.45 73.772C190.266 72.236 191.382 71.048 192.798 70.208C194.238 69.368 195.846 68.948 197.622 68.948C199.158 68.948 200.586 69.308 201.906 70.028C203.226 70.724 204.234 71.648 204.93 72.8V62.36H208.242V89H204.93V85.292C204.282 86.468 203.322 87.44 202.05 88.208C200.778 88.952 199.29 89.324 197.586 89.324C195.834 89.324 194.238 88.892 192.798 88.028C191.382 87.164 190.266 85.952 189.45 84.392C188.634 82.832 188.226 81.056 188.226 79.064ZM204.93 79.1C204.93 77.612 204.63 76.316 204.03 75.212C203.43 74.108 202.614 73.268 201.582 72.692C200.574 72.092 199.458 71.792 198.234 71.792C197.01 71.792 195.894 72.08 194.886 72.656C193.878 73.232 193.074 74.072 192.474 75.176C191.874 76.28 191.574 77.576 191.574 79.064C191.574 80.576 191.874 81.896 192.474 83.024C193.074 84.128 193.878 84.98 194.886 85.58C195.894 86.156 197.01 86.444 198.234 86.444C199.458 86.444 200.574 86.156 201.582 85.58C202.614 84.98 203.43 84.128 204.03 83.024C204.63 81.896 204.93 80.588 204.93 79.1ZM227.372 71.972V83.6C227.372 84.56 227.576 85.244 227.984 85.652C228.392 86.036 229.1 86.228 230.108 86.228H232.52V89H229.568C227.744 89 226.376 88.58 225.464 87.74C224.552 86.9 224.096 85.52 224.096 83.6V71.972H221.54V69.272H224.096V64.304H227.372V69.272H232.52V71.972H227.372ZM245.093 89.324C243.245 89.324 241.565 88.904 240.053 88.064C238.565 87.224 237.389 86.036 236.525 84.5C235.685 82.94 235.265 81.14 235.265 79.1C235.265 77.084 235.697 75.308 236.561 73.772C237.449 72.212 238.649 71.024 240.161 70.208C241.673 69.368 243.365 68.948 245.237 68.948C247.109 68.948 248.801 69.368 250.313 70.208C251.825 71.024 253.013 72.2 253.877 73.736C254.765 75.272 255.209 77.06 255.209 79.1C255.209 81.14 254.753 82.94 253.841 84.5C252.953 86.036 251.741 87.224 250.205 88.064C248.669 88.904 246.965 89.324 245.093 89.324ZM245.093 86.444C246.269 86.444 247.373 86.168 248.405 85.616C249.437 85.064 250.265 84.236 250.889 83.132C251.537 82.028 251.861 80.684 251.861 79.1C251.861 77.516 251.549 76.172 250.925 75.068C250.301 73.964 249.485 73.148 248.477 72.62C247.469 72.068 246.377 71.792 245.201 71.792C244.001 71.792 242.897 72.068 241.889 72.62C240.905 73.148 240.113 73.964 239.513 75.068C238.913 76.172 238.613 77.516 238.613 79.1C238.613 80.708 238.901 82.064 239.477 83.168C240.077 84.272 240.869 85.1 241.853 85.652C242.837 86.18 243.917 86.444 245.093 86.444ZM267.89 76.436C267.89 73.988 268.442 71.792 269.546 69.848C270.65 67.88 272.15 66.344 274.046 65.24C275.966 64.136 278.09 63.584 280.418 63.584C283.154 63.584 285.542 64.244 287.582 65.564C289.622 66.884 291.11 68.756 292.046 71.18H288.122C287.426 69.668 286.418 68.504 285.098 67.688C283.802 66.872 282.242 66.464 280.418 66.464C278.666 66.464 277.094 66.872 275.702 67.688C274.31 68.504 273.218 69.668 272.426 71.18C271.634 72.668 271.238 74.42 271.238 76.436C271.238 78.428 271.634 80.18 272.426 81.692C273.218 83.18 274.31 84.332 275.702 85.148C277.094 85.964 278.666 86.372 280.418 86.372C282.242 86.372 283.802 85.976 285.098 85.184C286.418 84.368 287.426 83.204 288.122 81.692H292.046C291.11 84.092 289.622 85.952 287.582 87.272C285.542 88.568 283.154 89.216 280.418 89.216C278.09 89.216 275.966 88.676 274.046 87.596C272.15 86.492 270.65 84.968 269.546 83.024C268.442 81.08 267.89 78.884 267.89 76.436ZM305.526 89.324C303.678 89.324 301.998 88.904 300.486 88.064C298.998 87.224 297.822 86.036 296.958 84.5C296.118 82.94 295.698 81.14 295.698 79.1C295.698 77.084 296.13 75.308 296.994 73.772C297.882 72.212 299.082 71.024 300.594 70.208C302.106 69.368 303.798 68.948 305.67 68.948C307.542 68.948 309.234 69.368 310.746 70.208C312.258 71.024 313.446 72.2 314.31 73.736C315.198 75.272 315.642 77.06 315.642 79.1C315.642 81.14 315.186 82.94 314.274 84.5C313.386 86.036 312.174 87.224 310.638 88.064C309.102 88.904 307.398 89.324 305.526 89.324ZM305.526 86.444C306.702 86.444 307.806 86.168 308.838 85.616C309.87 85.064 310.698 84.236 311.322 83.132C311.97 82.028 312.294 80.684 312.294 79.1C312.294 77.516 311.982 76.172 311.358 75.068C310.734 73.964 309.918 73.148 308.91 72.62C307.902 72.068 306.81 71.792 305.634 71.792C304.434 71.792 303.33 72.068 302.322 72.62C301.338 73.148 300.546 73.964 299.946 75.068C299.346 76.172 299.046 77.516 299.046 79.1C299.046 80.708 299.334 82.064 299.91 83.168C300.51 84.272 301.302 85.1 302.286 85.652C303.27 86.18 304.35 86.444 305.526 86.444ZM328.554 89.324C326.706 89.324 325.026 88.904 323.514 88.064C322.026 87.224 320.85 86.036 319.986 84.5C319.146 82.94 318.726 81.14 318.726 79.1C318.726 77.084 319.158 75.308 320.022 73.772C320.91 72.212 322.11 71.024 323.622 70.208C325.134 69.368 326.826 68.948 328.698 68.948C330.57 68.948 332.262 69.368 333.774 70.208C335.286 71.024 336.474 72.2 337.338 73.736C338.226 75.272 338.67 77.06 338.67 79.1C338.67 81.14 338.214 82.94 337.302 84.5C336.414 86.036 335.202 87.224 333.666 88.064C332.13 88.904 330.426 89.324 328.554 89.324ZM328.554 86.444C329.73 86.444 330.834 86.168 331.866 85.616C332.898 85.064 333.726 84.236 334.35 83.132C334.998 82.028 335.322 80.684 335.322 79.1C335.322 77.516 335.01 76.172 334.386 75.068C333.762 73.964 332.946 73.148 331.938 72.62C330.93 72.068 329.838 71.792 328.662 71.792C327.462 71.792 326.358 72.068 325.35 72.62C324.366 73.148 323.574 73.964 322.974 75.068C322.374 76.172 322.074 77.516 322.074 79.1C322.074 80.708 322.362 82.064 322.938 83.168C323.538 84.272 324.33 85.1 325.314 85.652C326.298 86.18 327.378 86.444 328.554 86.444ZM353.993 89L346.253 80.288V89H342.977V62.36H346.253V78.02L353.849 69.272H358.421L349.133 79.1L358.457 89H353.993Z" fill="white"/>
<g clip-path="url(#clip0_207_64)">
<path fill-rule="evenodd" clip-rule="evenodd" d="M50 123.333C77.6142 123.333 100 100.998 100 73.4457C100 45.8935 77.6142 0 50 0C33.6713 0 19.1708 16.0467 10.0458 34.8593L13.8889 37.4157L20.1755 39.4398L26.0233 37.4157L31.8713 38.8013L38.8888 36.0298L44.4445 37.4157L49.2878 40.0095L63.8888 40.1872L81.9445 38.8013L63.8888 41.5728H48.6112H45.8333L40.6433 40.1872L31.8713 42.9587L26.0233 41.5728L20.1755 44.3445L7.05283 41.5957C2.57392 52.6517 0 64.103 0 73.4457C0 100.998 22.3858 123.333 50 123.333Z" fill="#FFA500"/>
<path d="M40.5223 69.0533C40.5223 70.5467 40.1623 71.9467 39.4423 73.2533C38.749 74.56 37.6423 75.6133 36.1223 76.4133C34.629 77.2133 32.7357 77.6133 30.4423 77.6133H25.7623V88.3333H20.1623V60.4133H30.4423C32.6023 60.4133 34.4423 60.7867 35.9623 61.5333C37.4823 62.28 38.6157 63.3067 39.3623 64.6133C40.1357 65.92 40.5223 67.4 40.5223 69.0533ZM30.2023 73.0933C31.749 73.0933 32.8957 72.7467 33.6423 72.0533C34.389 71.3333 34.7623 70.3333 34.7623 69.0533C34.7623 66.3333 33.2423 64.9733 30.2023 64.9733H25.7623V73.0933H30.2023ZM50.0983 69.6133C50.8183 68.44 51.7517 67.52 52.8983 66.8533C54.0717 66.1867 55.405 65.8533 56.8983 65.8533V71.7333H55.4183C53.6583 71.7333 52.325 72.1467 51.4183 72.9733C50.5383 73.8 50.0983 75.24 50.0983 77.2933V88.3333H44.4983V66.1733H50.0983V69.6133ZM81.2702 76.7733C81.2702 77.5733 81.2168 78.2933 81.1102 78.9333H64.9102C65.0435 80.5333 65.6035 81.7867 66.5902 82.6933C67.5768 83.6 68.7902 84.0533 70.2302 84.0533C72.3102 84.0533 73.7902 83.16 74.6702 81.3733H80.7102C80.0702 83.5067 78.8435 85.2667 77.0302 86.6533C75.2168 88.0133 72.9902 88.6933 70.3502 88.6933C68.2168 88.6933 66.2968 88.2267 64.5902 87.2933C62.9102 86.3333 61.5902 84.9867 60.6302 83.2533C59.6968 81.52 59.2302 79.52 59.2302 77.2533C59.2302 74.96 59.6968 72.9467 60.6302 71.2133C61.5635 69.48 62.8702 68.1467 64.5502 67.2133C66.2302 66.28 68.1635 65.8133 70.3502 65.8133C72.4568 65.8133 74.3368 66.2667 75.9902 67.1733C77.6702 68.08 78.9635 69.3733 79.8702 71.0533C80.8035 72.7067 81.2702 74.6133 81.2702 76.7733ZM75.4702 75.1733C75.4435 73.7333 74.9235 72.5867 73.9102 71.7333C72.8968 70.8533 71.6568 70.4133 70.1902 70.4133C68.8035 70.4133 67.6302 70.84 66.6702 71.6933C65.7368 72.52 65.1635 73.68 64.9502 75.1733H75.4702Z" fill="white"/>
</g>
<defs>
<clipPath id="clip0_207_64">
<rect width="100" height="123.333" fill="white"/>
</clipPath>
</defs>
</svg>
