<svg width="28" height="28" viewBox="0 0 28 28" fill="none" xmlns="http://www.w3.org/2000/svg">
<g clip-path="url(#clip0_326_33)">
<path d="M14 2.3335C7.56 2.3335 2.33333 7.56016 2.33333 14.0002C2.33333 20.4402 7.56 25.6668 14 25.6668C20.44 25.6668 25.6667 20.4402 25.6667 14.0002C25.6667 7.56016 20.44 2.3335 14 2.3335ZM14 5.8335C15.9367 5.8335 17.5 7.39683 17.5 9.3335C17.5 11.2702 15.9367 12.8335 14 12.8335C12.0633 12.8335 10.5 11.2702 10.5 9.3335C10.5 7.39683 12.0633 5.8335 14 5.8335ZM14 22.4002C11.0833 22.4002 8.505 20.9068 7 18.6435C7.035 16.3218 11.6667 15.0502 14 15.0502C16.3217 15.0502 20.965 16.3218 21 18.6435C19.495 20.9068 16.9167 22.4002 14 22.4002Z" fill="#1C1C1C"/>
</g>
<defs>
<clipPath id="clip0_326_33">
<rect width="28" height="28" fill="white"/>
</clipPath>
</defs>
</svg>
