<svg width="50" height="50" viewBox="0 0 50 50" fill="none" xmlns="http://www.w3.org/2000/svg">
<path d="M7.5951 31.7859C4.47182 19.2859 18.3094 6.30973 25.0951 2.14307C25.0951 8.57164 24.1147 8.57164 27.6861 11.7859C31.8835 15.5635 30.1861 20.3574 30.9004 20.3574C31.4718 20.3574 35.9004 15.7145 36.5237 13.2145C38.3094 14.405 43.5748 19.6484 42.238 30.7145C40.9004 41.7859 31.6427 46.3097 26.1665 47.1431C20.9284 47.7383 10.9655 45.2747 7.5951 31.7859Z" fill="white"/>
<path d="M18.6234 34.6431C18.8991 32.4371 22.5237 27.6143 24.4885 25.2471C24.8456 25.2471 30.7662 32.5003 31.1233 34.6431C31.4805 36.786 29.6948 43.2146 24.6948 43.2146C19.6948 43.2146 18.2662 37.5003 18.6234 34.6431Z" fill="#FF6801"/>
</svg>
