<svg width="50" height="50" viewBox="0 0 50 50" fill="none" xmlns="http://www.w3.org/2000/svg">
<path d="M41.6667 2.5H8.33334C5.4185 2.5 3.05556 4.86294 3.05556 7.77778V41.1111C3.05556 44.0259 5.4185 46.3889 8.33334 46.3889H41.6667C44.5815 46.3889 46.9444 44.0259 46.9444 41.1111V7.77778C46.9444 4.86294 44.5815 2.5 41.6667 2.5Z" fill="white"/>
<path d="M15.5556 17.222C16.2921 14.4442 19.3561 8.88845 25.7197 8.88867C31.0227 8.88884 34.5581 14.4442 35 17.222" stroke="#FF6801" stroke-width="2" stroke-linecap="round"/>
<path d="M25.4444 18.1113C25.9967 18.1113 26.4444 17.6636 26.4444 17.1113C26.4444 16.5591 25.9967 16.1113 25.4444 16.1113C24.8922 16.1113 24.4444 16.5591 24.4444 17.1113C24.4444 17.6636 24.8922 18.1113 25.4444 18.1113Z" fill="#FF6801"/>
<path d="M25.0434 17.3874L30.1651 13.29" stroke="#FF6801" stroke-linecap="round"/>
</svg>
