<svg width="50" height="50" viewBox="0 0 50 50" fill="none" xmlns="http://www.w3.org/2000/svg">
<path d="M13.5 34.75C20.2655 34.75 25.75 29.2655 25.75 22.5C25.75 15.7345 20.2655 10.25 13.5 10.25C6.7345 10.25 1.25 15.7345 1.25 22.5C1.25 29.2655 6.7345 34.75 13.5 34.75Z" fill="white" stroke="#FF6801"/>
<path d="M22.25 19.75C26.9444 19.75 30.75 15.9444 30.75 11.25C30.75 6.5556 26.9444 2.75 22.25 2.75C17.5556 2.75 13.75 6.5556 13.75 11.25C13.75 15.9444 17.5556 19.75 22.25 19.75Z" fill="white" stroke="#FF6801"/>
<path d="M40.75 32.25C45.4444 32.25 49.25 28.4444 49.25 23.75C49.25 19.0556 45.4444 15.25 40.75 15.25C36.0556 15.25 32.25 19.0556 32.25 23.75C32.25 28.4444 36.0556 32.25 40.75 32.25Z" fill="white" stroke="#FF6801"/>
<path d="M14.75 42.25C19.4444 42.25 23.25 38.4444 23.25 33.75C23.25 29.0556 19.4444 25.25 14.75 25.25C10.0556 25.25 6.25 29.0556 6.25 33.75C6.25 38.4444 10.0556 42.25 14.75 42.25Z" fill="white" stroke="#FF6801"/>
<path d="M28.25 47.25C35.7059 47.25 41.75 41.2059 41.75 33.75C41.75 26.2941 35.7059 20.25 28.25 20.25C20.7941 20.25 14.75 26.2941 14.75 33.75C14.75 41.2059 20.7941 47.25 28.25 47.25Z" fill="white" stroke="#FF6801"/>
<path d="M28 33.75C34.7655 33.75 40.25 28.2655 40.25 21.5C40.25 14.7345 34.7655 9.25 28 9.25C21.2345 9.25 15.75 14.7345 15.75 21.5C15.75 28.2655 21.2345 33.75 28 33.75Z" fill="white" stroke="#FF6801"/>
</svg>
