<svg width="50" height="50" viewBox="0 0 50 50" fill="none" xmlns="http://www.w3.org/2000/svg">
<path d="M40.1589 19.048C38.9506 18.7795 36.3728 18.323 35.7283 18.6453C34.9228 19.048 33.7144 20.2565 32.7075 20.2565C31.7006 20.2565 29.4536 19.2495 28.0755 19.2495C26.4002 19.2495 23.3092 21.062 21.4296 21.8676C21.8324 20.1223 22.6379 16.3495 22.6379 15.2217C22.6379 13.812 23.4435 11.1939 24.2491 10.5898C24.8935 10.1063 27.0686 11.3282 28.0755 11.9994C29.6195 11.9995 32.9089 11.5162 33.7144 9.58275C34.52 7.64944 30.2908 5.28645 28.0755 4.34663C27.0686 4.14524 24.7727 3.94385 23.6449 4.74941C22.2352 5.75637 10.6797 17.4804 10.1201 20.8819C9.68591 23.5213 10.5586 23.7898 10.6928 23.7227C10.4243 24.5283 10.1603 26.2793 10.3214 26.9237C10.5228 27.7293 11.5615 29.1178 13.9782 28.7149C15.9115 28.3928 20.2884 30.7288 22.2352 31.9372C23.2422 32.7428 26.5852 33.9914 31.902 32.5413C32.3047 36.4349 34.1172 44.5443 38.1451 45.8332" stroke="white" stroke-width="3"/>
</svg>
